<mxfile host="app.diagrams.net" modified="2021-10-19T16:03:34.308Z" agent="5.0 (Windows NT 10.0; Win64; x64) AppleWebKit/537.36 (KHTML, like Gecko) Chrome/94.0.4606.81 Safari/537.36" etag="RV8FZm57UGrUQq9TBbHy" version="15.5.2" type="github">
  <diagram name="Page-1" id="c37626ed-c26b-45fb-9056-f9ebc6bb27b6">
    <mxGraphModel dx="2522" dy="1648" grid="1" gridSize="10" guides="1" tooltips="1" connect="1" arrows="1" fold="1" page="1" pageScale="1" pageWidth="1100" pageHeight="850" background="none" math="0" shadow="0">
      <root>
        <mxCell id="0" />
        <mxCell id="1" parent="0" />
        <mxCell id="a8O4qtRJu8ZM25vYqPSx-1" value="" style="rounded=0;whiteSpace=wrap;html=1;" vertex="1" parent="1">
          <mxGeometry x="20" y="310" width="370" height="260" as="geometry" />
        </mxCell>
        <mxCell id="a8O4qtRJu8ZM25vYqPSx-2" value="R2 - &quot;9.0.0.2&quot;&lt;br&gt;2.0.0.0/8" style="rounded=1;whiteSpace=wrap;html=1;" vertex="1" parent="1">
          <mxGeometry x="280" y="310" width="110" height="50" as="geometry" />
        </mxCell>
        <mxCell id="a8O4qtRJu8ZM25vYqPSx-3" value="&lt;b&gt;AS 2&lt;/b&gt;" style="text;html=1;strokeColor=none;fillColor=none;align=center;verticalAlign=middle;whiteSpace=wrap;rounded=0;" vertex="1" parent="1">
          <mxGeometry x="175" y="320" width="60" height="30" as="geometry" />
        </mxCell>
        <mxCell id="a8O4qtRJu8ZM25vYqPSx-4" value="eth1: (h2-1)&lt;br&gt;2.0.1.254/24&lt;br&gt;eth2: (h2-2)&lt;br&gt;2.0.2.254/24&lt;br&gt;eth3: (h2-3)&lt;br&gt;2.0.3.254/24" style="rounded=0;whiteSpace=wrap;html=1;" vertex="1" parent="1">
          <mxGeometry x="280" y="360" width="110" height="90" as="geometry" />
        </mxCell>
        <mxCell id="a8O4qtRJu8ZM25vYqPSx-5" value="eth4: (to AS 1)&lt;br&gt;9.0.0.1/24&lt;br&gt;eth5: (to AS 3)&lt;br&gt;9.0.3.1/24&lt;br&gt;eth6: (to AS 4)&lt;br&gt;9.0.4.1/24&lt;br&gt;eth7: (to AS 5)&lt;br&gt;9.0.5.1/24" style="rounded=0;whiteSpace=wrap;html=1;" vertex="1" parent="1">
          <mxGeometry x="280" y="450" width="110" height="120" as="geometry" />
        </mxCell>
        <mxCell id="a8O4qtRJu8ZM25vYqPSx-6" value="" style="shape=mxgraph.cisco.computers_and_peripherals.pc;sketch=0;html=1;pointerEvents=1;dashed=0;fillColor=#036897;strokeColor=#ffffff;strokeWidth=2;verticalLabelPosition=bottom;verticalAlign=top;align=center;outlineConnect=0;" vertex="1" parent="1">
          <mxGeometry x="50" y="340" width="40" height="40" as="geometry" />
        </mxCell>
        <mxCell id="a8O4qtRJu8ZM25vYqPSx-7" value="" style="shape=mxgraph.cisco.computers_and_peripherals.pc;sketch=0;html=1;pointerEvents=1;dashed=0;fillColor=#036897;strokeColor=#ffffff;strokeWidth=2;verticalLabelPosition=bottom;verticalAlign=top;align=center;outlineConnect=0;" vertex="1" parent="1">
          <mxGeometry x="50" y="410" width="40" height="40" as="geometry" />
        </mxCell>
        <mxCell id="a8O4qtRJu8ZM25vYqPSx-8" value="" style="shape=mxgraph.cisco.computers_and_peripherals.pc;sketch=0;html=1;pointerEvents=1;dashed=0;fillColor=#036897;strokeColor=#ffffff;strokeWidth=2;verticalLabelPosition=bottom;verticalAlign=top;align=center;outlineConnect=0;" vertex="1" parent="1">
          <mxGeometry x="50" y="480" width="40" height="40" as="geometry" />
        </mxCell>
        <mxCell id="a8O4qtRJu8ZM25vYqPSx-9" value="h2-3&lt;br&gt;2.0.3.1/24" style="text;html=1;strokeColor=none;fillColor=none;align=center;verticalAlign=middle;whiteSpace=wrap;rounded=0;" vertex="1" parent="1">
          <mxGeometry x="40" y="520" width="60" height="30" as="geometry" />
        </mxCell>
        <mxCell id="a8O4qtRJu8ZM25vYqPSx-10" value="h2-2&lt;br&gt;2.0.2.1/24" style="text;html=1;strokeColor=none;fillColor=none;align=center;verticalAlign=middle;whiteSpace=wrap;rounded=0;" vertex="1" parent="1">
          <mxGeometry x="40" y="450" width="60" height="30" as="geometry" />
        </mxCell>
        <mxCell id="a8O4qtRJu8ZM25vYqPSx-11" value="h2-1&lt;br&gt;2.0.1.1/24" style="text;html=1;strokeColor=none;fillColor=none;align=center;verticalAlign=middle;whiteSpace=wrap;rounded=0;" vertex="1" parent="1">
          <mxGeometry x="40" y="380" width="60" height="30" as="geometry" />
        </mxCell>
        <mxCell id="a8O4qtRJu8ZM25vYqPSx-12" value="" style="endArrow=none;html=1;rounded=0;entryX=0.009;entryY=0.856;entryDx=0;entryDy=0;entryPerimeter=0;edgeStyle=orthogonalEdgeStyle;" edge="1" parent="1" source="a8O4qtRJu8ZM25vYqPSx-8" target="a8O4qtRJu8ZM25vYqPSx-4">
          <mxGeometry width="50" height="50" relative="1" as="geometry">
            <mxPoint x="600" y="590" as="sourcePoint" />
            <mxPoint x="650" y="540" as="targetPoint" />
          </mxGeometry>
        </mxCell>
        <mxCell id="a8O4qtRJu8ZM25vYqPSx-13" value="" style="endArrow=none;html=1;rounded=0;entryX=0;entryY=0.5;entryDx=0;entryDy=0;edgeStyle=orthogonalEdgeStyle;" edge="1" parent="1" source="a8O4qtRJu8ZM25vYqPSx-7" target="a8O4qtRJu8ZM25vYqPSx-4">
          <mxGeometry width="50" height="50" relative="1" as="geometry">
            <mxPoint x="600" y="590" as="sourcePoint" />
            <mxPoint x="250" y="400" as="targetPoint" />
          </mxGeometry>
        </mxCell>
        <mxCell id="a8O4qtRJu8ZM25vYqPSx-14" value="" style="endArrow=none;html=1;rounded=0;entryX=0;entryY=0.111;entryDx=0;entryDy=0;entryPerimeter=0;edgeStyle=orthogonalEdgeStyle;" edge="1" parent="1" source="a8O4qtRJu8ZM25vYqPSx-6" target="a8O4qtRJu8ZM25vYqPSx-4">
          <mxGeometry width="50" height="50" relative="1" as="geometry">
            <mxPoint x="600" y="590" as="sourcePoint" />
            <mxPoint x="650" y="540" as="targetPoint" />
          </mxGeometry>
        </mxCell>
        <mxCell id="a8O4qtRJu8ZM25vYqPSx-15" value="" style="rounded=0;whiteSpace=wrap;html=1;" vertex="1" parent="1">
          <mxGeometry x="420" y="-50" width="370" height="260" as="geometry" />
        </mxCell>
        <mxCell id="a8O4qtRJu8ZM25vYqPSx-16" value="R4 - &quot;9.0.0.4&quot;&lt;br&gt;4.0.0.0/8" style="rounded=1;whiteSpace=wrap;html=1;" vertex="1" parent="1">
          <mxGeometry x="680" y="-50" width="110" height="50" as="geometry" />
        </mxCell>
        <mxCell id="a8O4qtRJu8ZM25vYqPSx-17" value="&lt;b&gt;AS 4&lt;/b&gt;" style="text;html=1;strokeColor=none;fillColor=none;align=center;verticalAlign=middle;whiteSpace=wrap;rounded=0;" vertex="1" parent="1">
          <mxGeometry x="575" y="-40" width="60" height="30" as="geometry" />
        </mxCell>
        <mxCell id="a8O4qtRJu8ZM25vYqPSx-18" value="eth1: (h4-1)&lt;br&gt;4.0.1.254/24&lt;br&gt;eth2: (h4-2)&lt;br&gt;4.0.2.254/24&lt;br&gt;eth3: (h4-3)&lt;br&gt;4.0.3.254/24" style="rounded=0;whiteSpace=wrap;html=1;" vertex="1" parent="1">
          <mxGeometry x="680" width="110" height="90" as="geometry" />
        </mxCell>
        <mxCell id="a8O4qtRJu8ZM25vYqPSx-19" value="eth4: (to AS 2)&lt;br&gt;9.0.4.2/24&lt;br&gt;eth5: (to AS 3)&lt;br&gt;9.0.6.2/24&lt;br&gt;eth6: (to AS 5)&lt;br&gt;9.0.8.1/24" style="rounded=0;whiteSpace=wrap;html=1;" vertex="1" parent="1">
          <mxGeometry x="680" y="90" width="110" height="120" as="geometry" />
        </mxCell>
        <mxCell id="a8O4qtRJu8ZM25vYqPSx-20" value="" style="shape=mxgraph.cisco.computers_and_peripherals.pc;sketch=0;html=1;pointerEvents=1;dashed=0;fillColor=#036897;strokeColor=#ffffff;strokeWidth=2;verticalLabelPosition=bottom;verticalAlign=top;align=center;outlineConnect=0;" vertex="1" parent="1">
          <mxGeometry x="450" y="-20" width="40" height="40" as="geometry" />
        </mxCell>
        <mxCell id="a8O4qtRJu8ZM25vYqPSx-21" value="" style="shape=mxgraph.cisco.computers_and_peripherals.pc;sketch=0;html=1;pointerEvents=1;dashed=0;fillColor=#036897;strokeColor=#ffffff;strokeWidth=2;verticalLabelPosition=bottom;verticalAlign=top;align=center;outlineConnect=0;" vertex="1" parent="1">
          <mxGeometry x="450" y="50" width="40" height="40" as="geometry" />
        </mxCell>
        <mxCell id="a8O4qtRJu8ZM25vYqPSx-22" value="" style="shape=mxgraph.cisco.computers_and_peripherals.pc;sketch=0;html=1;pointerEvents=1;dashed=0;fillColor=#036897;strokeColor=#ffffff;strokeWidth=2;verticalLabelPosition=bottom;verticalAlign=top;align=center;outlineConnect=0;" vertex="1" parent="1">
          <mxGeometry x="450" y="120" width="40" height="40" as="geometry" />
        </mxCell>
        <mxCell id="a8O4qtRJu8ZM25vYqPSx-23" value="h4-3&lt;br&gt;4.0.3.1/24" style="text;html=1;strokeColor=none;fillColor=none;align=center;verticalAlign=middle;whiteSpace=wrap;rounded=0;" vertex="1" parent="1">
          <mxGeometry x="440" y="160" width="60" height="30" as="geometry" />
        </mxCell>
        <mxCell id="a8O4qtRJu8ZM25vYqPSx-24" value="h4-2&lt;br&gt;4.0.2.1/24" style="text;html=1;strokeColor=none;fillColor=none;align=center;verticalAlign=middle;whiteSpace=wrap;rounded=0;" vertex="1" parent="1">
          <mxGeometry x="440" y="90" width="60" height="30" as="geometry" />
        </mxCell>
        <mxCell id="a8O4qtRJu8ZM25vYqPSx-25" value="h4-1&lt;br&gt;4.0.1.1/24" style="text;html=1;strokeColor=none;fillColor=none;align=center;verticalAlign=middle;whiteSpace=wrap;rounded=0;" vertex="1" parent="1">
          <mxGeometry x="440" y="20" width="60" height="30" as="geometry" />
        </mxCell>
        <mxCell id="a8O4qtRJu8ZM25vYqPSx-26" value="" style="endArrow=none;html=1;rounded=0;entryX=0.009;entryY=0.856;entryDx=0;entryDy=0;entryPerimeter=0;edgeStyle=orthogonalEdgeStyle;" edge="1" parent="1" source="a8O4qtRJu8ZM25vYqPSx-22" target="a8O4qtRJu8ZM25vYqPSx-18">
          <mxGeometry width="50" height="50" relative="1" as="geometry">
            <mxPoint x="1000" y="230" as="sourcePoint" />
            <mxPoint x="1050" y="180" as="targetPoint" />
          </mxGeometry>
        </mxCell>
        <mxCell id="a8O4qtRJu8ZM25vYqPSx-27" value="" style="endArrow=none;html=1;rounded=0;entryX=0;entryY=0.5;entryDx=0;entryDy=0;edgeStyle=orthogonalEdgeStyle;" edge="1" parent="1" source="a8O4qtRJu8ZM25vYqPSx-21" target="a8O4qtRJu8ZM25vYqPSx-18">
          <mxGeometry width="50" height="50" relative="1" as="geometry">
            <mxPoint x="1000" y="230" as="sourcePoint" />
            <mxPoint x="650" y="40" as="targetPoint" />
          </mxGeometry>
        </mxCell>
        <mxCell id="a8O4qtRJu8ZM25vYqPSx-28" value="" style="endArrow=none;html=1;rounded=0;entryX=0;entryY=0.111;entryDx=0;entryDy=0;entryPerimeter=0;edgeStyle=orthogonalEdgeStyle;" edge="1" parent="1" source="a8O4qtRJu8ZM25vYqPSx-20" target="a8O4qtRJu8ZM25vYqPSx-18">
          <mxGeometry width="50" height="50" relative="1" as="geometry">
            <mxPoint x="1000" y="230" as="sourcePoint" />
            <mxPoint x="1050" y="180" as="targetPoint" />
          </mxGeometry>
        </mxCell>
        <mxCell id="a8O4qtRJu8ZM25vYqPSx-44" value="" style="rounded=0;whiteSpace=wrap;html=1;" vertex="1" parent="1">
          <mxGeometry x="420" y="650" width="370" height="260" as="geometry" />
        </mxCell>
        <mxCell id="a8O4qtRJu8ZM25vYqPSx-45" value="R3 - &quot;9.0.0.3&quot;&lt;br&gt;3.0.0.0/8" style="rounded=1;whiteSpace=wrap;html=1;" vertex="1" parent="1">
          <mxGeometry x="680" y="650" width="110" height="50" as="geometry" />
        </mxCell>
        <mxCell id="a8O4qtRJu8ZM25vYqPSx-46" value="&lt;b&gt;AS 3&lt;/b&gt;" style="text;html=1;strokeColor=none;fillColor=none;align=center;verticalAlign=middle;whiteSpace=wrap;rounded=0;" vertex="1" parent="1">
          <mxGeometry x="575" y="660" width="60" height="30" as="geometry" />
        </mxCell>
        <mxCell id="a8O4qtRJu8ZM25vYqPSx-47" value="eth1: (h3-1)&lt;br&gt;3.0.1.254/24&lt;br&gt;eth2: (h3-2)&lt;br&gt;3.0.2.254/24&lt;br&gt;eth3: (h3-3)&lt;br&gt;3.0.3.254/24" style="rounded=0;whiteSpace=wrap;html=1;" vertex="1" parent="1">
          <mxGeometry x="680" y="700" width="110" height="90" as="geometry" />
        </mxCell>
        <mxCell id="a8O4qtRJu8ZM25vYqPSx-48" value="eth4: (to AS 1)&lt;br&gt;9.0.1.1/24&lt;br&gt;eth5: (to AS 2)&lt;br&gt;9.0.3.2/24&lt;br&gt;eth6: (to AS 4)&lt;br&gt;9.0.6.1/24&lt;br&gt;eth7: (to AS 5)&lt;br&gt;9.0.7.1/24" style="rounded=0;whiteSpace=wrap;html=1;" vertex="1" parent="1">
          <mxGeometry x="680" y="790" width="110" height="120" as="geometry" />
        </mxCell>
        <mxCell id="a8O4qtRJu8ZM25vYqPSx-49" value="" style="shape=mxgraph.cisco.computers_and_peripherals.pc;sketch=0;html=1;pointerEvents=1;dashed=0;fillColor=#036897;strokeColor=#ffffff;strokeWidth=2;verticalLabelPosition=bottom;verticalAlign=top;align=center;outlineConnect=0;" vertex="1" parent="1">
          <mxGeometry x="450" y="680" width="40" height="40" as="geometry" />
        </mxCell>
        <mxCell id="a8O4qtRJu8ZM25vYqPSx-50" value="" style="shape=mxgraph.cisco.computers_and_peripherals.pc;sketch=0;html=1;pointerEvents=1;dashed=0;fillColor=#036897;strokeColor=#ffffff;strokeWidth=2;verticalLabelPosition=bottom;verticalAlign=top;align=center;outlineConnect=0;" vertex="1" parent="1">
          <mxGeometry x="450" y="750" width="40" height="40" as="geometry" />
        </mxCell>
        <mxCell id="a8O4qtRJu8ZM25vYqPSx-51" value="" style="shape=mxgraph.cisco.computers_and_peripherals.pc;sketch=0;html=1;pointerEvents=1;dashed=0;fillColor=#036897;strokeColor=#ffffff;strokeWidth=2;verticalLabelPosition=bottom;verticalAlign=top;align=center;outlineConnect=0;" vertex="1" parent="1">
          <mxGeometry x="450" y="820" width="40" height="40" as="geometry" />
        </mxCell>
        <mxCell id="a8O4qtRJu8ZM25vYqPSx-52" value="h3-3&lt;br&gt;3.0.3.1/24" style="text;html=1;strokeColor=none;fillColor=none;align=center;verticalAlign=middle;whiteSpace=wrap;rounded=0;" vertex="1" parent="1">
          <mxGeometry x="440" y="860" width="60" height="30" as="geometry" />
        </mxCell>
        <mxCell id="a8O4qtRJu8ZM25vYqPSx-53" value="h3-2&lt;br&gt;3.0.2.1/24" style="text;html=1;strokeColor=none;fillColor=none;align=center;verticalAlign=middle;whiteSpace=wrap;rounded=0;" vertex="1" parent="1">
          <mxGeometry x="440" y="790" width="60" height="30" as="geometry" />
        </mxCell>
        <mxCell id="a8O4qtRJu8ZM25vYqPSx-54" value="h3-1&lt;br&gt;3.0.1.1/24" style="text;html=1;strokeColor=none;fillColor=none;align=center;verticalAlign=middle;whiteSpace=wrap;rounded=0;" vertex="1" parent="1">
          <mxGeometry x="440" y="720" width="60" height="30" as="geometry" />
        </mxCell>
        <mxCell id="a8O4qtRJu8ZM25vYqPSx-55" value="" style="endArrow=none;html=1;rounded=0;entryX=0.009;entryY=0.856;entryDx=0;entryDy=0;entryPerimeter=0;edgeStyle=orthogonalEdgeStyle;" edge="1" parent="1" source="a8O4qtRJu8ZM25vYqPSx-51" target="a8O4qtRJu8ZM25vYqPSx-47">
          <mxGeometry width="50" height="50" relative="1" as="geometry">
            <mxPoint x="1000" y="930" as="sourcePoint" />
            <mxPoint x="1050" y="880" as="targetPoint" />
          </mxGeometry>
        </mxCell>
        <mxCell id="a8O4qtRJu8ZM25vYqPSx-56" value="" style="endArrow=none;html=1;rounded=0;entryX=0;entryY=0.5;entryDx=0;entryDy=0;edgeStyle=orthogonalEdgeStyle;" edge="1" parent="1" source="a8O4qtRJu8ZM25vYqPSx-50" target="a8O4qtRJu8ZM25vYqPSx-47">
          <mxGeometry width="50" height="50" relative="1" as="geometry">
            <mxPoint x="1000" y="930" as="sourcePoint" />
            <mxPoint x="650" y="740" as="targetPoint" />
          </mxGeometry>
        </mxCell>
        <mxCell id="a8O4qtRJu8ZM25vYqPSx-57" value="" style="endArrow=none;html=1;rounded=0;entryX=0;entryY=0.111;entryDx=0;entryDy=0;entryPerimeter=0;edgeStyle=orthogonalEdgeStyle;" edge="1" parent="1" source="a8O4qtRJu8ZM25vYqPSx-49" target="a8O4qtRJu8ZM25vYqPSx-47">
          <mxGeometry width="50" height="50" relative="1" as="geometry">
            <mxPoint x="1000" y="930" as="sourcePoint" />
            <mxPoint x="1050" y="880" as="targetPoint" />
          </mxGeometry>
        </mxCell>
        <mxCell id="a8O4qtRJu8ZM25vYqPSx-58" value="" style="rounded=0;whiteSpace=wrap;html=1;" vertex="1" parent="1">
          <mxGeometry x="840" y="310" width="370" height="260" as="geometry" />
        </mxCell>
        <mxCell id="a8O4qtRJu8ZM25vYqPSx-59" value="R5 - &quot;9.0.0.5&quot;&lt;br&gt;5.0.0.0/8" style="rounded=1;whiteSpace=wrap;html=1;" vertex="1" parent="1">
          <mxGeometry x="1100" y="310" width="110" height="50" as="geometry" />
        </mxCell>
        <mxCell id="a8O4qtRJu8ZM25vYqPSx-60" value="&lt;b&gt;AS 5&lt;/b&gt;" style="text;html=1;strokeColor=none;fillColor=none;align=center;verticalAlign=middle;whiteSpace=wrap;rounded=0;" vertex="1" parent="1">
          <mxGeometry x="995" y="320" width="60" height="30" as="geometry" />
        </mxCell>
        <mxCell id="a8O4qtRJu8ZM25vYqPSx-61" value="eth1: (h5-1)&lt;br&gt;5.0.1.254/24&lt;br&gt;eth2: (h5-2)&lt;br&gt;5.0.2.254/24&lt;br&gt;eth3: (h5-3)&lt;br&gt;5.0.3.254/24" style="rounded=0;whiteSpace=wrap;html=1;" vertex="1" parent="1">
          <mxGeometry x="1100" y="360" width="110" height="90" as="geometry" />
        </mxCell>
        <mxCell id="a8O4qtRJu8ZM25vYqPSx-62" value="eth4: (to AS 2)&lt;br&gt;9.0.5.2/24&lt;br&gt;eth5: (to AS 3)&lt;br&gt;9.0.7.2/24&lt;br&gt;eth6: (to AS 4)&lt;br&gt;9.0.8.2/24&lt;br&gt;eth7: (to AS 6)&lt;br&gt;9.0.9.1/24" style="rounded=0;whiteSpace=wrap;html=1;" vertex="1" parent="1">
          <mxGeometry x="1100" y="450" width="110" height="120" as="geometry" />
        </mxCell>
        <mxCell id="a8O4qtRJu8ZM25vYqPSx-63" value="" style="shape=mxgraph.cisco.computers_and_peripherals.pc;sketch=0;html=1;pointerEvents=1;dashed=0;fillColor=#036897;strokeColor=#ffffff;strokeWidth=2;verticalLabelPosition=bottom;verticalAlign=top;align=center;outlineConnect=0;" vertex="1" parent="1">
          <mxGeometry x="870" y="340" width="40" height="40" as="geometry" />
        </mxCell>
        <mxCell id="a8O4qtRJu8ZM25vYqPSx-64" value="" style="shape=mxgraph.cisco.computers_and_peripherals.pc;sketch=0;html=1;pointerEvents=1;dashed=0;fillColor=#036897;strokeColor=#ffffff;strokeWidth=2;verticalLabelPosition=bottom;verticalAlign=top;align=center;outlineConnect=0;" vertex="1" parent="1">
          <mxGeometry x="870" y="410" width="40" height="40" as="geometry" />
        </mxCell>
        <mxCell id="a8O4qtRJu8ZM25vYqPSx-65" value="" style="shape=mxgraph.cisco.computers_and_peripherals.pc;sketch=0;html=1;pointerEvents=1;dashed=0;fillColor=#036897;strokeColor=#ffffff;strokeWidth=2;verticalLabelPosition=bottom;verticalAlign=top;align=center;outlineConnect=0;" vertex="1" parent="1">
          <mxGeometry x="870" y="480" width="40" height="40" as="geometry" />
        </mxCell>
        <mxCell id="a8O4qtRJu8ZM25vYqPSx-66" value="h5-3&lt;br&gt;5.0.3.1/24" style="text;html=1;strokeColor=none;fillColor=none;align=center;verticalAlign=middle;whiteSpace=wrap;rounded=0;" vertex="1" parent="1">
          <mxGeometry x="860" y="520" width="60" height="30" as="geometry" />
        </mxCell>
        <mxCell id="a8O4qtRJu8ZM25vYqPSx-67" value="h5-2&lt;br&gt;5.0.2.1/24" style="text;html=1;strokeColor=none;fillColor=none;align=center;verticalAlign=middle;whiteSpace=wrap;rounded=0;" vertex="1" parent="1">
          <mxGeometry x="860" y="450" width="60" height="30" as="geometry" />
        </mxCell>
        <mxCell id="a8O4qtRJu8ZM25vYqPSx-68" value="h5-1&lt;br&gt;5.0.1.1/24" style="text;html=1;strokeColor=none;fillColor=none;align=center;verticalAlign=middle;whiteSpace=wrap;rounded=0;" vertex="1" parent="1">
          <mxGeometry x="860" y="380" width="60" height="30" as="geometry" />
        </mxCell>
        <mxCell id="a8O4qtRJu8ZM25vYqPSx-69" value="" style="endArrow=none;html=1;rounded=0;entryX=0.009;entryY=0.856;entryDx=0;entryDy=0;entryPerimeter=0;edgeStyle=orthogonalEdgeStyle;" edge="1" parent="1" source="a8O4qtRJu8ZM25vYqPSx-65" target="a8O4qtRJu8ZM25vYqPSx-61">
          <mxGeometry width="50" height="50" relative="1" as="geometry">
            <mxPoint x="1420" y="590" as="sourcePoint" />
            <mxPoint x="1470" y="540" as="targetPoint" />
          </mxGeometry>
        </mxCell>
        <mxCell id="a8O4qtRJu8ZM25vYqPSx-70" value="" style="endArrow=none;html=1;rounded=0;entryX=0;entryY=0.5;entryDx=0;entryDy=0;edgeStyle=orthogonalEdgeStyle;" edge="1" parent="1" source="a8O4qtRJu8ZM25vYqPSx-64" target="a8O4qtRJu8ZM25vYqPSx-61">
          <mxGeometry width="50" height="50" relative="1" as="geometry">
            <mxPoint x="1420" y="590" as="sourcePoint" />
            <mxPoint x="1070" y="400" as="targetPoint" />
          </mxGeometry>
        </mxCell>
        <mxCell id="a8O4qtRJu8ZM25vYqPSx-71" value="" style="endArrow=none;html=1;rounded=0;entryX=0;entryY=0.111;entryDx=0;entryDy=0;entryPerimeter=0;edgeStyle=orthogonalEdgeStyle;" edge="1" parent="1" source="a8O4qtRJu8ZM25vYqPSx-63" target="a8O4qtRJu8ZM25vYqPSx-61">
          <mxGeometry width="50" height="50" relative="1" as="geometry">
            <mxPoint x="1420" y="590" as="sourcePoint" />
            <mxPoint x="1470" y="540" as="targetPoint" />
          </mxGeometry>
        </mxCell>
        <mxCell id="a8O4qtRJu8ZM25vYqPSx-72" value="" style="rounded=0;whiteSpace=wrap;html=1;" vertex="1" parent="1">
          <mxGeometry x="-200" y="790" width="370" height="260" as="geometry" />
        </mxCell>
        <mxCell id="a8O4qtRJu8ZM25vYqPSx-73" value="R1 - &quot;9.0.0.1&quot;&lt;br&gt;1.0.0.0/8" style="rounded=1;whiteSpace=wrap;html=1;" vertex="1" parent="1">
          <mxGeometry x="60" y="790" width="110" height="50" as="geometry" />
        </mxCell>
        <mxCell id="a8O4qtRJu8ZM25vYqPSx-74" value="&lt;b&gt;AS 1&lt;/b&gt;" style="text;html=1;strokeColor=none;fillColor=none;align=center;verticalAlign=middle;whiteSpace=wrap;rounded=0;" vertex="1" parent="1">
          <mxGeometry x="-45" y="800" width="60" height="30" as="geometry" />
        </mxCell>
        <mxCell id="a8O4qtRJu8ZM25vYqPSx-75" value="eth1: (h1-1)&lt;br&gt;1.0.1.254/24&lt;br&gt;eth2: (h1-2)&lt;br&gt;1.0.2.254/24&lt;br&gt;eth3: (h1-3)&lt;br&gt;1.0.3.254/24" style="rounded=0;whiteSpace=wrap;html=1;" vertex="1" parent="1">
          <mxGeometry x="60" y="840" width="110" height="90" as="geometry" />
        </mxCell>
        <mxCell id="a8O4qtRJu8ZM25vYqPSx-76" value="eth4: (to AS 2)&lt;br&gt;9.0.0.2/24&lt;br&gt;eth5: (to AS 3)&lt;br&gt;9.0.1.2/24&lt;br&gt;" style="rounded=0;whiteSpace=wrap;html=1;" vertex="1" parent="1">
          <mxGeometry x="60" y="930" width="110" height="120" as="geometry" />
        </mxCell>
        <mxCell id="a8O4qtRJu8ZM25vYqPSx-77" value="" style="shape=mxgraph.cisco.computers_and_peripherals.pc;sketch=0;html=1;pointerEvents=1;dashed=0;fillColor=#036897;strokeColor=#ffffff;strokeWidth=2;verticalLabelPosition=bottom;verticalAlign=top;align=center;outlineConnect=0;" vertex="1" parent="1">
          <mxGeometry x="-170" y="820" width="40" height="40" as="geometry" />
        </mxCell>
        <mxCell id="a8O4qtRJu8ZM25vYqPSx-78" value="" style="shape=mxgraph.cisco.computers_and_peripherals.pc;sketch=0;html=1;pointerEvents=1;dashed=0;fillColor=#036897;strokeColor=#ffffff;strokeWidth=2;verticalLabelPosition=bottom;verticalAlign=top;align=center;outlineConnect=0;" vertex="1" parent="1">
          <mxGeometry x="-170" y="890" width="40" height="40" as="geometry" />
        </mxCell>
        <mxCell id="a8O4qtRJu8ZM25vYqPSx-79" value="" style="shape=mxgraph.cisco.computers_and_peripherals.pc;sketch=0;html=1;pointerEvents=1;dashed=0;fillColor=#036897;strokeColor=#ffffff;strokeWidth=2;verticalLabelPosition=bottom;verticalAlign=top;align=center;outlineConnect=0;" vertex="1" parent="1">
          <mxGeometry x="-170" y="960" width="40" height="40" as="geometry" />
        </mxCell>
        <mxCell id="a8O4qtRJu8ZM25vYqPSx-80" value="h1-3&lt;br&gt;1.0.3.1/24" style="text;html=1;strokeColor=none;fillColor=none;align=center;verticalAlign=middle;whiteSpace=wrap;rounded=0;" vertex="1" parent="1">
          <mxGeometry x="-180" y="1000" width="60" height="30" as="geometry" />
        </mxCell>
        <mxCell id="a8O4qtRJu8ZM25vYqPSx-81" value="h1-2&lt;br&gt;1.0.2.1/24" style="text;html=1;strokeColor=none;fillColor=none;align=center;verticalAlign=middle;whiteSpace=wrap;rounded=0;" vertex="1" parent="1">
          <mxGeometry x="-180" y="930" width="60" height="30" as="geometry" />
        </mxCell>
        <mxCell id="a8O4qtRJu8ZM25vYqPSx-82" value="h1-1&lt;br&gt;1.0.1.1/24" style="text;html=1;strokeColor=none;fillColor=none;align=center;verticalAlign=middle;whiteSpace=wrap;rounded=0;" vertex="1" parent="1">
          <mxGeometry x="-180" y="860" width="60" height="30" as="geometry" />
        </mxCell>
        <mxCell id="a8O4qtRJu8ZM25vYqPSx-83" value="" style="endArrow=none;html=1;rounded=0;entryX=0.009;entryY=0.856;entryDx=0;entryDy=0;entryPerimeter=0;edgeStyle=orthogonalEdgeStyle;" edge="1" parent="1" source="a8O4qtRJu8ZM25vYqPSx-79" target="a8O4qtRJu8ZM25vYqPSx-75">
          <mxGeometry width="50" height="50" relative="1" as="geometry">
            <mxPoint x="380" y="1070" as="sourcePoint" />
            <mxPoint x="430" y="1020" as="targetPoint" />
          </mxGeometry>
        </mxCell>
        <mxCell id="a8O4qtRJu8ZM25vYqPSx-84" value="" style="endArrow=none;html=1;rounded=0;entryX=0;entryY=0.5;entryDx=0;entryDy=0;edgeStyle=orthogonalEdgeStyle;" edge="1" parent="1" source="a8O4qtRJu8ZM25vYqPSx-78" target="a8O4qtRJu8ZM25vYqPSx-75">
          <mxGeometry width="50" height="50" relative="1" as="geometry">
            <mxPoint x="380" y="1070" as="sourcePoint" />
            <mxPoint x="30" y="880" as="targetPoint" />
          </mxGeometry>
        </mxCell>
        <mxCell id="a8O4qtRJu8ZM25vYqPSx-85" value="" style="endArrow=none;html=1;rounded=0;entryX=0;entryY=0.111;entryDx=0;entryDy=0;entryPerimeter=0;edgeStyle=orthogonalEdgeStyle;" edge="1" parent="1" source="a8O4qtRJu8ZM25vYqPSx-77" target="a8O4qtRJu8ZM25vYqPSx-75">
          <mxGeometry width="50" height="50" relative="1" as="geometry">
            <mxPoint x="380" y="1070" as="sourcePoint" />
            <mxPoint x="430" y="1020" as="targetPoint" />
          </mxGeometry>
        </mxCell>
        <mxCell id="a8O4qtRJu8ZM25vYqPSx-88" value="" style="rounded=0;whiteSpace=wrap;html=1;" vertex="1" parent="1">
          <mxGeometry x="950" y="780" width="370" height="260" as="geometry" />
        </mxCell>
        <mxCell id="a8O4qtRJu8ZM25vYqPSx-89" value="R6 - &quot;9.0.0.6&quot;&lt;br&gt;1.0.0.0/8" style="rounded=1;whiteSpace=wrap;html=1;" vertex="1" parent="1">
          <mxGeometry x="1210" y="780" width="110" height="50" as="geometry" />
        </mxCell>
        <mxCell id="a8O4qtRJu8ZM25vYqPSx-90" value="&lt;b&gt;AS 6&lt;/b&gt;" style="text;html=1;strokeColor=none;fillColor=none;align=center;verticalAlign=middle;whiteSpace=wrap;rounded=0;" vertex="1" parent="1">
          <mxGeometry x="1105" y="790" width="60" height="30" as="geometry" />
        </mxCell>
        <mxCell id="a8O4qtRJu8ZM25vYqPSx-91" value="eth1: (h6-1)&lt;br&gt;1.0.1.254/24&lt;br&gt;eth2: (h6-2)&lt;br&gt;1.0.2.254/24&lt;br&gt;eth3: (h6-3)&lt;br&gt;1.0.3.254/24" style="rounded=0;whiteSpace=wrap;html=1;" vertex="1" parent="1">
          <mxGeometry x="1210" y="830" width="110" height="90" as="geometry" />
        </mxCell>
        <mxCell id="a8O4qtRJu8ZM25vYqPSx-92" value="eth4: (to AS 5)&lt;br&gt;9.0.9.2/24&lt;br&gt;" style="rounded=0;whiteSpace=wrap;html=1;" vertex="1" parent="1">
          <mxGeometry x="1210" y="920" width="110" height="120" as="geometry" />
        </mxCell>
        <mxCell id="a8O4qtRJu8ZM25vYqPSx-93" value="" style="shape=mxgraph.cisco.computers_and_peripherals.pc;sketch=0;html=1;pointerEvents=1;dashed=0;fillColor=#036897;strokeColor=#ffffff;strokeWidth=2;verticalLabelPosition=bottom;verticalAlign=top;align=center;outlineConnect=0;" vertex="1" parent="1">
          <mxGeometry x="980" y="810" width="40" height="40" as="geometry" />
        </mxCell>
        <mxCell id="a8O4qtRJu8ZM25vYqPSx-94" value="" style="shape=mxgraph.cisco.computers_and_peripherals.pc;sketch=0;html=1;pointerEvents=1;dashed=0;fillColor=#036897;strokeColor=#ffffff;strokeWidth=2;verticalLabelPosition=bottom;verticalAlign=top;align=center;outlineConnect=0;" vertex="1" parent="1">
          <mxGeometry x="980" y="880" width="40" height="40" as="geometry" />
        </mxCell>
        <mxCell id="a8O4qtRJu8ZM25vYqPSx-95" value="" style="shape=mxgraph.cisco.computers_and_peripherals.pc;sketch=0;html=1;pointerEvents=1;dashed=0;fillColor=#036897;strokeColor=#ffffff;strokeWidth=2;verticalLabelPosition=bottom;verticalAlign=top;align=center;outlineConnect=0;" vertex="1" parent="1">
          <mxGeometry x="980" y="950" width="40" height="40" as="geometry" />
        </mxCell>
        <mxCell id="a8O4qtRJu8ZM25vYqPSx-96" value="h6-3&lt;br&gt;1.0.3.1/24" style="text;html=1;strokeColor=none;fillColor=none;align=center;verticalAlign=middle;whiteSpace=wrap;rounded=0;" vertex="1" parent="1">
          <mxGeometry x="970" y="990" width="60" height="30" as="geometry" />
        </mxCell>
        <mxCell id="a8O4qtRJu8ZM25vYqPSx-97" value="h6-2&lt;br&gt;1.0.2.1/24" style="text;html=1;strokeColor=none;fillColor=none;align=center;verticalAlign=middle;whiteSpace=wrap;rounded=0;" vertex="1" parent="1">
          <mxGeometry x="970" y="920" width="60" height="30" as="geometry" />
        </mxCell>
        <mxCell id="a8O4qtRJu8ZM25vYqPSx-98" value="h6-1&lt;br&gt;1.0.1.1/24" style="text;html=1;strokeColor=none;fillColor=none;align=center;verticalAlign=middle;whiteSpace=wrap;rounded=0;" vertex="1" parent="1">
          <mxGeometry x="970" y="850" width="60" height="30" as="geometry" />
        </mxCell>
        <mxCell id="a8O4qtRJu8ZM25vYqPSx-99" value="" style="endArrow=none;html=1;rounded=0;entryX=0.009;entryY=0.856;entryDx=0;entryDy=0;entryPerimeter=0;edgeStyle=orthogonalEdgeStyle;" edge="1" parent="1" source="a8O4qtRJu8ZM25vYqPSx-95" target="a8O4qtRJu8ZM25vYqPSx-91">
          <mxGeometry width="50" height="50" relative="1" as="geometry">
            <mxPoint x="1530" y="1060" as="sourcePoint" />
            <mxPoint x="1580" y="1010" as="targetPoint" />
          </mxGeometry>
        </mxCell>
        <mxCell id="a8O4qtRJu8ZM25vYqPSx-100" value="" style="endArrow=none;html=1;rounded=0;entryX=0;entryY=0.5;entryDx=0;entryDy=0;edgeStyle=orthogonalEdgeStyle;" edge="1" parent="1" source="a8O4qtRJu8ZM25vYqPSx-94" target="a8O4qtRJu8ZM25vYqPSx-91">
          <mxGeometry width="50" height="50" relative="1" as="geometry">
            <mxPoint x="1530" y="1060" as="sourcePoint" />
            <mxPoint x="1180" y="870" as="targetPoint" />
          </mxGeometry>
        </mxCell>
        <mxCell id="a8O4qtRJu8ZM25vYqPSx-101" value="" style="endArrow=none;html=1;rounded=0;entryX=0;entryY=0.111;entryDx=0;entryDy=0;entryPerimeter=0;edgeStyle=orthogonalEdgeStyle;" edge="1" parent="1" source="a8O4qtRJu8ZM25vYqPSx-93" target="a8O4qtRJu8ZM25vYqPSx-91">
          <mxGeometry width="50" height="50" relative="1" as="geometry">
            <mxPoint x="1530" y="1060" as="sourcePoint" />
            <mxPoint x="1580" y="1010" as="targetPoint" />
          </mxGeometry>
        </mxCell>
      </root>
    </mxGraphModel>
  </diagram>
</mxfile>
